<svg width="30" height="30" viewBox="0 0 30 30" fill="none" xmlns="http://www.w3.org/2000/svg">
<path fill-rule="evenodd" clip-rule="evenodd" d="M19.0605 7.9395C19.3418 8.22079 19.4997 8.60225 19.4997 9C19.4997 9.39775 19.3418 9.77921 19.0605 10.0605L14.121 15L19.0605 19.9395C19.3338 20.2224 19.485 20.6013 19.4816 20.9946C19.4781 21.3879 19.3204 21.7641 19.0423 22.0422C18.7642 22.3203 18.3879 22.4781 17.9946 22.4815C17.6014 22.4849 17.2224 22.3337 16.9395 22.0605L10.9395 16.0605C10.6583 15.7792 10.5004 15.3977 10.5004 15C10.5004 14.6023 10.6583 14.2208 10.9395 13.9395L16.9395 7.9395C17.2208 7.65829 17.6023 7.50032 18 7.50032C18.3978 7.50032 18.7793 7.65829 19.0605 7.9395Z" fill="#202B3C"/>
</svg>
