<svg width="21" height="23" viewBox="0 0 21 23" fill="none" xmlns="http://www.w3.org/2000/svg">
<path d="M17.3306 16.4656L12.5572 21.239C12.3484 21.4479 12.1005 21.6137 11.8277 21.7268C11.5548 21.8399 11.2624 21.8981 10.967 21.8981C10.6716 21.8981 10.3792 21.8399 10.1063 21.7268C9.83345 21.6137 9.58556 21.4479 9.37681 21.239L4.60231 16.4656C3.34368 15.2069 2.48656 13.6033 2.13933 11.8574C1.7921 10.1116 1.97036 8.30205 2.65156 6.65755C3.33277 5.01304 4.48632 3.60746 5.96635 2.61855C7.44638 1.62964 9.18642 1.10181 10.9664 1.10181C12.7464 1.10181 14.4865 1.62964 15.9665 2.61855C17.4465 3.60746 18.6001 5.01304 19.2813 6.65755C19.9625 8.30205 20.1408 10.1116 19.7935 11.8574C19.4463 13.6033 18.5892 15.2069 17.3306 16.4656Z" stroke="#CDCDCD" stroke-width="2" stroke-linecap="round" stroke-linejoin="round"/>
<path d="M14.3414 10.1014C14.3414 10.9965 13.9858 11.855 13.3529 12.4879C12.72 13.1209 11.8615 13.4764 10.9664 13.4764C10.0713 13.4764 9.21288 13.1209 8.57994 12.4879C7.94701 11.855 7.59143 10.9965 7.59143 10.1014C7.59143 9.20633 7.94701 8.34789 8.57994 7.71495C9.21288 7.08202 10.0713 6.72644 10.9664 6.72644C11.8615 6.72644 12.72 7.08202 13.3529 7.71495C13.9858 8.34789 14.3414 9.20633 14.3414 10.1014Z" stroke="#CDCDCD" stroke-width="2" stroke-linecap="round" stroke-linejoin="round"/>
</svg>
