<svg width="17" height="23" viewBox="0 0 17 23" fill="none" xmlns="http://www.w3.org/2000/svg">
<path d="M1 3.12659V19.536C1.00121 19.8722 1.09452 20.2014 1.2694 20.4864C1.44429 20.7714 1.69379 21.0009 1.98975 21.149C2.28571 21.2971 2.61634 21.3578 2.94435 21.3244C3.27236 21.291 3.58468 21.1647 3.84607 20.9598L14.9858 12.1238C15.2065 11.9483 15.3833 11.7218 15.5014 11.463C15.6196 11.2042 15.6758 10.9205 15.6655 10.6352C15.6551 10.3499 15.5784 10.0712 15.4418 9.82206C15.3052 9.57289 15.1125 9.36037 14.8797 9.20201L3.73994 1.62979C3.474 1.4515 3.16582 1.3497 2.84789 1.33513C2.52997 1.32056 2.21408 1.39377 1.93354 1.54702C1.653 1.70028 1.4182 1.92791 1.25389 2.20591C1.08959 2.48391 1.00188 2.80198 1 3.12659Z" fill="#FFFCF4" stroke="#FFFCF4" stroke-width="1.5" stroke-linecap="round" stroke-linejoin="round"/>
</svg>
