<svg width="1440" height="422" viewBox="0 0 1440 422" fill="none" xmlns="http://www.w3.org/2000/svg">
<g opacity="0.9">
<path d="M1 0H1441V421H1V0Z" fill="#F1F0FF"/>
<path d="M239 176L368.904 421.25H109.096L239 176Z" fill="#91AFA4"/>
<path d="M68 99L238.607 421.5H-102.607L68 99Z" fill="#CBC1EB"/>
<path d="M1442 314H1V421H14.4813C15.944 396.763 24.9183 356.421 85.8822 354.157C151.533 351.719 165.144 394.825 164.773 421H194.731C195.23 394.061 210.236 354.061 267.63 354.157C325.553 354.253 344.415 394.535 346.021 421H376.479C376.978 391.719 392.357 354.157 449.877 354.157C507.397 354.157 524.773 391.719 526.271 421H555.231C557.668 396.299 568.514 354.9 626.632 354.157C692.538 353.315 707.115 397.518 707.02 421H737.977C735.67 396.278 747.52 354.58 811.375 354.157C873.791 353.744 888.237 395.169 887.769 421H918.726C919.961 394.634 932.867 355.273 992.124 354.157C1054.55 352.981 1069.02 393.392 1068.52 421H1099.48C1100.47 393.48 1116.21 354.607 1173.87 354.157C1230.54 353.715 1246.66 394.477 1249.27 421H1281.22C1277.71 392.904 1296.77 353.475 1356.62 354.157C1411.32 354.78 1429.15 392.972 1431.02 421H1442V314Z" fill="#B2A6D9"/>
<path d="M810.454 289.974L847.534 250.403C850.958 245.884 859.562 241 864.683 241H979.126V311.748H921.517C920.683 308.355 917.639 305.811 913.996 305.811H862.415C858.772 305.811 855.728 308.355 854.894 311.748H826.331C819.849 311.748 812.005 308.97 808.933 305.562C805.845 302.155 806.533 295.136 810.454 289.974Z" fill="#EFEDE0"/>
<path d="M864.683 241H865.62C865.064 250.9 860.103 274.444 825.38 274.034L847.519 250.403C850.943 245.884 859.547 241 864.669 241H864.683Z" fill="#F5C2C2"/>
<path d="M872.029 299.874H872.804V265.582C872.804 260.917 876.697 257.115 881.482 257.115H894.929C899.714 257.115 903.606 260.917 903.606 265.582V299.874H904.382V265.582C904.382 260.478 900.138 256.34 894.929 256.34H881.482C876.272 256.34 872.029 260.493 872.029 265.582V299.874Z" fill="#D8D3BF"/>
<path d="M910.601 267.322C910.601 271.592 914.098 275.073 918.356 275.073H965.678C969.951 275.073 973.434 271.578 973.434 267.322C973.434 263.052 969.937 259.572 965.678 259.572H918.356C914.083 259.572 910.601 263.067 910.601 267.322Z" fill="#F5C2C2"/>
<path d="M979.126 299.874L979.126 311.748H921.619C920.785 308.355 917.742 305.811 914.098 305.811H862.518C858.874 305.811 855.83 308.355 854.996 311.748H826.346C819.863 311.748 812.02 308.97 808.947 305.562C807.674 304.158 807.06 302.14 807.03 299.888H979.14L979.126 299.874Z" fill="#808490"/>
<path d="M874.707 299.874V267.322C874.707 263.052 878.204 259.572 882.462 259.572H893.963C898.236 259.572 901.719 263.067 901.719 267.322V299.874H874.707Z" fill="#808490"/>
<path d="M898.09 307.668C898.09 311.163 900.929 314 904.426 314C907.923 314 910.762 311.163 910.762 307.668C910.762 304.173 907.923 301.336 904.426 301.336C900.929 301.336 898.09 304.173 898.09 307.668Z" fill="#808490"/>
<path d="M865.781 307.595C865.781 311.09 868.619 313.927 872.117 313.927C875.614 313.927 878.453 311.09 878.453 307.595C878.453 304.1 875.614 301.263 872.117 301.263C868.619 301.263 865.781 304.1 865.781 307.595Z" fill="#808490"/>
<path d="M904.426 310.183H872.117C870.873 310.183 870.873 308.238 872.117 308.238H904.426C905.67 308.238 905.67 310.183 904.426 310.183Z" fill="#B5B7BC"/>
<path d="M979.111 244.744H985.725V305.811H979.111V244.744Z" fill="#737782"/>
<path d="M1143.42 299.874V311.748H1097.04C1096.2 308.355 1093.16 305.811 1089.52 305.811H1037.93C1034.29 305.811 1031.25 308.355 1030.41 311.748H985.74V299.874H1143.42Z" fill="#808490"/>
<path d="M985.725 299.874V241H1143.42V299.874H985.725Z" fill="#EFEDE0"/>
<path d="M1074.38 307.668C1074.38 311.163 1077.22 314 1080.72 314C1084.22 314 1087.06 311.163 1087.06 307.668C1087.06 304.173 1084.22 301.336 1080.72 301.336C1077.22 301.336 1074.38 304.173 1074.38 307.668Z" fill="#808490"/>
<path d="M1042.08 307.595C1042.08 311.09 1044.91 313.927 1048.41 313.927C1051.91 313.927 1054.75 311.09 1054.75 307.595C1054.75 304.1 1051.91 301.263 1048.41 301.263C1044.91 301.263 1042.08 304.1 1042.08 307.595Z" fill="#808490"/>
<path d="M1080.72 310.183H1048.41C1047.15 310.183 1047.15 308.238 1048.41 308.238H1080.72C1081.96 308.238 1081.96 310.183 1080.72 310.183Z" fill="#B5B7BC"/>
<path d="M993.334 267.322C993.334 271.592 996.831 275.073 1001.09 275.073H1048.41C1052.68 275.073 1056.17 271.578 1056.17 267.322C1056.17 263.052 1052.67 259.572 1048.41 259.572H1001.09C996.817 259.572 993.334 263.067 993.334 267.322Z" fill="#F5C2C2"/>
<path d="M1072.98 267.322C1072.98 271.592 1076.48 275.073 1080.74 275.073H1128.06C1132.33 275.073 1135.81 271.578 1135.81 267.322C1135.81 263.052 1132.32 259.572 1128.06 259.572H1080.74C1076.46 259.572 1072.98 263.067 1072.98 267.322Z" fill="#F5C2C2"/>
<path d="M1143.41 244.744H1150.02V305.811H1143.41V244.744Z" fill="#737782"/>
<path d="M1307.72 299.874V311.748H1261.33C1260.5 308.355 1257.46 305.811 1253.81 305.811H1202.23C1198.59 305.811 1195.54 308.355 1194.71 311.748H1150.04V299.874H1307.72Z" fill="#808490"/>
<path d="M1150.02 299.874V241H1307.7V299.874H1150.02Z" fill="#EFEDE0"/>
<path d="M1238.68 307.668C1238.68 311.163 1241.52 314 1245.02 314C1248.51 314 1251.35 311.163 1251.35 307.668C1251.35 304.173 1248.51 301.336 1245.02 301.336C1241.52 301.336 1238.68 304.173 1238.68 307.668Z" fill="#808490"/>
<path d="M1206.37 307.595C1206.37 311.09 1209.21 313.927 1212.71 313.927C1216.21 313.927 1219.04 311.09 1219.04 307.595C1219.04 304.1 1216.21 301.263 1212.71 301.263C1209.21 301.263 1206.37 304.1 1206.37 307.595Z" fill="#808490"/>
<path d="M1245.02 310.183H1212.71C1211.46 310.183 1211.46 308.238 1212.71 308.238H1245.02C1246.26 308.238 1246.26 310.183 1245.02 310.183Z" fill="#B5B7BC"/>
<path d="M1157.63 267.322C1157.63 271.592 1161.13 275.073 1165.39 275.073H1212.71C1216.98 275.073 1220.46 271.578 1220.46 267.322C1220.46 263.052 1216.97 259.572 1212.71 259.572H1165.39C1161.11 259.572 1157.63 263.067 1157.63 267.322Z" fill="#F5C2C2"/>
<path d="M1237.26 267.322C1237.26 271.592 1240.76 275.073 1245.02 275.073H1292.34C1296.61 275.073 1300.09 271.578 1300.09 267.322C1300.09 263.052 1296.6 259.572 1292.34 259.572H1245.02C1240.74 259.572 1237.26 263.067 1237.26 267.322Z" fill="#F5C2C2"/>
<path d="M1307.7 244.744H1314.32V305.811H1307.7V244.744Z" fill="#737782"/>
<path d="M1472 299.874V311.748H1425.61C1424.78 308.355 1421.74 305.811 1418.09 305.811H1366.51C1362.87 305.811 1359.83 308.355 1358.99 311.748H1314.32V299.874H1472Z" fill="#808490"/>
<path d="M1314.32 299.874V241H1472V299.874H1314.32Z" fill="#EFEDE0"/>
<path d="M1402.96 307.668C1402.96 311.163 1405.8 314 1409.3 314C1412.8 314 1415.63 311.163 1415.63 307.668C1415.63 304.173 1412.8 301.336 1409.3 301.336C1405.8 301.336 1402.96 304.173 1402.96 307.668Z" fill="#808490"/>
<path d="M1377 313.927C1373.51 313.927 1370.67 311.092 1370.67 307.595C1370.67 304.098 1373.51 301.263 1377 301.263C1380.5 301.263 1383.34 304.098 1383.34 307.595C1383.34 311.092 1380.5 313.927 1377 313.927Z" fill="#808490"/>
<path d="M1409.31 310.183H1377C1375.76 310.183 1375.76 308.238 1377 308.238H1409.31C1410.56 308.238 1410.56 310.183 1409.31 310.183Z" fill="#B5B7BC"/>
<path d="M1321.93 267.322C1321.93 271.592 1325.42 275.073 1329.68 275.073H1377C1381.28 275.073 1384.76 271.578 1384.76 267.322C1384.76 263.052 1381.26 259.572 1377 259.572H1329.68C1325.41 259.572 1321.93 263.067 1321.93 267.322Z" fill="#F5C2C2"/>
<path d="M1401.56 267.322C1401.56 271.592 1405.06 275.073 1409.31 275.073H1456.64C1460.91 275.073 1464.39 271.578 1464.39 267.322C1464.39 263.052 1460.89 259.572 1456.64 259.572H1409.31C1405.04 259.572 1401.56 263.067 1401.56 267.322Z" fill="#F5C2C2"/>
<path d="M205 176C205 196.987 187.987 214 167 214C146.013 214 129 196.987 129 176C129 155.013 146.013 138 167 138C187.987 138 205 155.013 205 176Z" fill="#F5C2C2"/>
<path d="M1 99H1441V421H1V99Z" fill="url(#paint0_linear_77_424)"/>
</g>
<defs>
<linearGradient id="paint0_linear_77_424" x1="721" y1="99" x2="721" y2="421" gradientUnits="userSpaceOnUse">
<stop offset="0.13" stop-color="#F1F0FF"/>
<stop offset="1" stop-color="#F1F0FF" stop-opacity="0.25"/>
</linearGradient>
</defs>
</svg>
