<svg width="15" height="8" viewBox="0 0 15 8" fill="none" xmlns="http://www.w3.org/2000/svg">
<path fill-rule="evenodd" clip-rule="evenodd" d="M1.31032 0.841609C1.57318 0.622877 1.92966 0.5 2.30136 0.5C2.67305 0.5 3.02953 0.622877 3.29239 0.841609L7.90837 4.68372L12.5243 0.841609C12.7887 0.629076 13.1428 0.511474 13.5103 0.514132C13.8779 0.516791 14.2294 0.639496 14.4893 0.855821C14.7492 1.07215 14.8967 1.36478 14.8998 1.6707C14.903 1.97662 14.7618 2.27134 14.5064 2.49139L8.8994 7.15839C8.63654 7.37712 8.28006 7.5 7.90837 7.5C7.53667 7.5 7.18019 7.37712 6.91733 7.15839L1.31032 2.49139C1.04753 2.27259 0.899902 1.97588 0.899902 1.6665C0.899902 1.35712 1.04753 1.06041 1.31032 0.841609Z" fill="#202B3C"/>
</svg>