<svg width="13" height="9" viewBox="0 0 13 9" fill="none" xmlns="http://www.w3.org/2000/svg">
<path fill-rule="evenodd" clip-rule="evenodd" d="M12.6446 7.74853C12.417 7.9735 12.1084 8.09988 11.7866 8.09988C11.4647 8.09988 11.1561 7.9735 10.9285 7.74853L6.93174 3.79693L2.93502 7.74853C2.70611 7.96712 2.39953 8.08808 2.0813 8.08534C1.76307 8.08261 1.45866 7.95641 1.23363 7.73392C1.0086 7.51143 0.880954 7.21045 0.878188 6.89581C0.875422 6.58118 0.997757 6.27806 1.21884 6.05173L6.07366 1.25173C6.30126 1.02677 6.60991 0.900391 6.93174 0.900391C7.25357 0.900391 7.56223 1.02677 7.78983 1.25173L12.6446 6.05173C12.8722 6.27677 13 6.58194 13 6.90013C13 7.21833 12.8722 7.5235 12.6446 7.74853Z" fill="#202B3C"/>
</svg>